<svg xmlns="http://www.w3.org/2000/svg" xmlns:xlink="http://www.w3.org/1999/xlink" viewBox="0 0 106.69 184.87"><defs><style>.cls-1{fill:url(#linear-gradient);}</style><linearGradient id="linear-gradient" x1="73.34" y1="-602.99" x2="28.64" y2="-445.77" gradientTransform="matrix(1, 0, 0, -1, 0, -427.13)" gradientUnits="userSpaceOnUse"><stop offset="0" stop-color="#f5de14"/><stop offset="0.6" stop-color="#f19c2e"/><stop offset="0.84" stop-color="#019447"/></linearGradient></defs><g id="Layer_2" data-name="Layer 2"><g id="Layer_1-2" data-name="Layer 1"><g id="Layer_2-2" data-name="Layer 2"><g id="Back"><path class="cls-1" d="M106.59,132a.56.56,0,0,0,0-.12.13.13,0,0,1,0-.1,1.29,1.29,0,0,0,0-.48.14.14,0,0,0,0-.1.82.82,0,0,0-.1-.24s0-.06,0-.09a.65.65,0,0,0-.15-.18L81.12,105.48l25.21-25.21a1.21,1.21,0,0,0,0-1.71,1.24,1.24,0,0,0-.87-.36H56.27l24-24a1.2,1.2,0,0,0,0-1.71l0,0-26.07-26h0L28.14.36a1.21,1.21,0,0,0-1.71,0,1.15,1.15,0,0,0-.36.87V53.35h0a.88.88,0,0,0,0,.23.13.13,0,0,0,0,.1l0,.12a.54.54,0,0,0,.07.13.2.2,0,0,0,0,.08l.15.19,24,24H1.22a1.21,1.21,0,0,0-.86,2.07l25.21,25.21L.36,130.68l-.15.19a.28.28,0,0,1,0,.09l-.06.11a.83.83,0,0,0,0,.15.13.13,0,0,1,0,.1v.23H0a.88.88,0,0,0,0,.23.22.22,0,0,0,0,.11.56.56,0,0,1,0,.12l.07.12a.28.28,0,0,0,0,.09.84.84,0,0,0,.15.18L26.4,158.47l26.09,26.05a1.19,1.19,0,0,0,.18.15l.09.05.12.06.12,0,.11,0a1.24,1.24,0,0,0,.47,0l.11,0,.12,0,.12-.06.09-.05a.9.9,0,0,0,.19-.15l26.06-26.06,26.06-26.09.15-.18,0-.09A.36.36,0,0,0,106.59,132ZM79.42,107.19l23.13,23.12H56.27ZM53.34,129.82,30.22,106.7H76.51ZM30.22,104.27,53.34,81.14l23.13,23.13Zm-2.92,2.92,23.12,23.12H4.14Zm23.12,25.56L27.3,155.87,4.18,132.75Zm1.73,1.73v46.29L29,157.64Zm2.43,0L77.7,157.6,54.58,180.73Zm24.85,21.43L56.31,132.79h46.28Zm0-52.12L56.31,80.66h46.28ZM54.58,76.51V30.2L77.7,53.32Zm-2.43,0L29,53.39,52.15,30.27Zm-.5-49.21L28.53,50.42V4.14ZM50.44,80.64,27.32,103.76,4.2,80.64Z"/></g></g></g></g></svg>